<svg id="visual" viewBox="0 0 960 540" width="960" height="540" xmlns="http://www.w3.org/2000/svg" xmlns:xlink="http://www.w3.org/1999/xlink" version="1.1"><path d="M0 109L14.5 99.2C29 89.3 58 69.7 87.2 72.3C116.3 75 145.7 100 174.8 99C204 98 233 71 262 72.8C291 74.7 320 105.3 349 115.3C378 125.3 407 114.7 436.2 107.5C465.3 100.3 494.7 96.7 523.8 99.3C553 102 582 111 611 109.2C640 107.3 669 94.7 698 92C727 89.3 756 96.7 785.2 95.8C814.3 95 843.7 86 872.8 77.8C902 69.7 931 62.3 945.5 58.7L960 55L960 0L945.5 0C931 0 902 0 872.8 0C843.7 0 814.3 0 785.2 0C756 0 727 0 698 0C669 0 640 0 611 0C582 0 553 0 523.8 0C494.7 0 465.3 0 436.2 0C407 0 378 0 349 0C320 0 291 0 262 0C233 0 204 0 174.8 0C145.7 0 116.3 0 87.2 0C58 0 29 0 14.5 0L0 0Z" fill="#e8e8e8"></path><path d="M0 271L14.5 275.5C29 280 58 289 87.2 287.2C116.3 285.3 145.7 272.7 174.8 259.2C204 245.7 233 231.3 262 227.8C291 224.3 320 231.7 349 225.3C378 219 407 199 436.2 208.8C465.3 218.7 494.7 258.3 523.8 260.2C553 262 582 226 611 220.7C640 215.3 669 240.7 698 251.5C727 262.3 756 258.7 785.2 265.8C814.3 273 843.7 291 872.8 291C902 291 931 273 945.5 264L960 255L960 53L945.5 56.7C931 60.3 902 67.7 872.8 75.8C843.7 84 814.3 93 785.2 93.8C756 94.7 727 87.3 698 90C669 92.7 640 105.3 611 107.2C582 109 553 100 523.8 97.3C494.7 94.7 465.3 98.3 436.2 105.5C407 112.7 378 123.3 349 113.3C320 103.3 291 72.7 262 70.8C233 69 204 96 174.8 97C145.7 98 116.3 73 87.2 70.3C58 67.7 29 87.3 14.5 97.2L0 107Z" fill="#efefef"></path><path d="M0 298L14.5 304.3C29 310.7 58 323.3 87.2 322.5C116.3 321.7 145.7 307.3 174.8 296.5C204 285.7 233 278.3 262 276.5C291 274.7 320 278.3 349 275.7C378 273 407 264 436.2 273.8C465.3 283.7 494.7 312.3 523.8 313.2C553 314 582 287 611 284.3C640 281.7 669 303.3 698 309.7C727 316 756 307 785.2 308.8C814.3 310.7 843.7 323.3 872.8 326C902 328.7 931 321.3 945.5 317.7L960 314L960 253L945.5 262C931 271 902 289 872.8 289C843.7 289 814.3 271 785.2 263.8C756 256.7 727 260.3 698 249.5C669 238.7 640 213.3 611 218.7C582 224 553 260 523.8 258.2C494.7 256.3 465.3 216.7 436.2 206.8C407 197 378 217 349 223.3C320 229.7 291 222.3 262 225.8C233 229.3 204 243.7 174.8 257.2C145.7 270.7 116.3 283.3 87.2 285.2C58 287 29 278 14.5 273.5L0 269Z" fill="#f6f6f6"></path><path d="M0 433L14.5 438.3C29 443.7 58 454.3 87.2 448C116.3 441.7 145.7 418.3 174.8 413.8C204 409.3 233 423.7 262 429.2C291 434.7 320 431.3 349 434.2C378 437 407 446 436.2 445C465.3 444 494.7 433 523.8 424.8C553 416.7 582 411.3 611 409.5C640 407.7 669 409.3 698 410.2C727 411 756 411 785.2 412C814.3 413 843.7 415 872.8 410.5C902 406 931 395 945.5 389.5L960 384L960 312L945.5 315.7C931 319.3 902 326.7 872.8 324C843.7 321.3 814.3 308.7 785.2 306.8C756 305 727 314 698 307.7C669 301.3 640 279.7 611 282.3C582 285 553 312 523.8 311.2C494.7 310.3 465.3 281.7 436.2 271.8C407 262 378 271 349 273.7C320 276.3 291 272.7 262 274.5C233 276.3 204 283.7 174.8 294.5C145.7 305.3 116.3 319.7 87.2 320.5C58 321.3 29 308.7 14.5 302.3L0 296Z" fill="#f9f9f9"></path><path d="M0 503L14.5 503C29 503 58 503 87.2 497.7C116.3 492.3 145.7 481.7 174.8 479C204 476.3 233 481.7 262 482.5C291 483.3 320 479.7 349 478.8C378 478 407 480 436.2 481.8C465.3 483.7 494.7 485.3 523.8 484.3C553 483.3 582 479.7 611 478.8C640 478 669 480 698 474.7C727 469.3 756 456.7 785.2 455.7C814.3 454.7 843.7 465.3 872.8 465.3C902 465.3 931 454.7 945.5 449.3L960 444L960 382L945.5 387.5C931 393 902 404 872.8 408.5C843.7 413 814.3 411 785.2 410C756 409 727 409 698 408.2C669 407.3 640 405.7 611 407.5C582 409.3 553 414.7 523.8 422.8C494.7 431 465.3 442 436.2 443C407 444 378 435 349 432.2C320 429.3 291 432.7 262 427.2C233 421.7 204 407.3 174.8 411.8C145.7 416.3 116.3 439.7 87.2 446C58 452.3 29 441.7 14.5 436.3L0 431Z" fill="#fafafa"></path><path d="M0 541L14.5 541C29 541 58 541 87.2 541C116.3 541 145.7 541 174.8 541C204 541 233 541 262 541C291 541 320 541 349 541C378 541 407 541 436.2 541C465.3 541 494.7 541 523.8 541C553 541 582 541 611 541C640 541 669 541 698 541C727 541 756 541 785.2 541C814.3 541 843.7 541 872.8 541C902 541 931 541 945.5 541L960 541L960 442L945.5 447.3C931 452.7 902 463.3 872.8 463.3C843.7 463.3 814.3 452.7 785.2 453.7C756 454.7 727 467.3 698 472.7C669 478 640 476 611 476.8C582 477.7 553 481.3 523.8 482.3C494.7 483.3 465.3 481.7 436.2 479.8C407 478 378 476 349 476.8C320 477.7 291 481.3 262 480.5C233 479.7 204 474.3 174.8 477C145.7 479.7 116.3 490.3 87.2 495.7C58 501 29 501 14.5 501L0 501Z" fill="#fbfbfb"></path></svg>