<svg xmlns="http://www.w3.org/2000/svg" xmlns:xlink="http://www.w3.org/1999/xlink" version="1.1" width="256" height="256" viewBox="0 0 256 256" xml:space="preserve">
<g style="stroke: none; stroke-width: 0; stroke-dasharray: none; stroke-linecap: butt; stroke-linejoin: miter; stroke-miterlimit: 10; fill: none; fill-rule: nonzero; opacity: 1;" transform="translate(1.4065934065934016 1.4065934065934016) scale(2.81 2.81)">
	<path d="M 45 68.024 c -12.715 0 -23.023 -10.308 -23.023 -23.023 c 0 -0.82 0.045 -1.63 0.128 -2.428 L 6.669 33.058 C 3.56 36.635 1.261 40.665 0 45 c 4.617 15.871 23.004 27.734 45 27.734 c 7.251 0 14.101 -1.302 20.204 -3.6 l -7.749 -4.776 C 53.864 66.674 49.591 68.024 45 68.024 z" style="stroke: none; stroke-width: 1; stroke-dasharray: none; stroke-linecap: butt; stroke-linejoin: miter; stroke-miterlimit: 10; fill: rgb(160,160,160); fill-rule: nonzero; opacity: 1;" transform=" matrix(1 0 0 1 0 0) " stroke-linecap="round"/>
	<path d="M 50.108 59.831 L 29.459 47.105 C 30.49 54.777 37.046 60.698 45 60.698 C 46.791 60.698 48.505 60.383 50.108 59.831 z" style="stroke: none; stroke-width: 1; stroke-dasharray: none; stroke-linecap: butt; stroke-linejoin: miter; stroke-miterlimit: 10; fill: rgb(160,160,160); fill-rule: nonzero; opacity: 1;" transform=" matrix(1 0 0 1 0 0) " stroke-linecap="round"/>
	<path d="M 90 45 c -4.617 -15.871 -23.004 -27.734 -45 -27.734 c -10.802 0 -20.728 2.866 -28.586 7.658 L 0 14.807 v 4.917 l 90 55.469 v -4.842 l -12.625 -7.856 C 83.558 57.795 88.032 51.764 90 45 z M 65.612 55.245 l -6.282 -3.872 c 0.871 -1.948 1.368 -4.1 1.368 -6.373 c 0 -8.67 -7.028 -15.698 -15.698 -15.698 c -4.895 0 -9.264 2.244 -12.142 5.755 l -6.274 -3.867 c 4.199 -5.594 10.883 -9.214 18.416 -9.214 c 12.715 0 23.023 10.308 23.023 23.023 C 68.023 48.683 67.149 52.159 65.612 55.245 z" style="stroke: none; stroke-width: 1; stroke-dasharray: none; stroke-linecap: butt; stroke-linejoin: miter; stroke-miterlimit: 10; fill: rgb(160,160,160); fill-rule: nonzero; opacity: 1;" transform=" matrix(1 0 0 1 0 0) " stroke-linecap="round"/>
</g>
</svg>